<svg xmlns="http://www.w3.org/2000/svg" width="100" height="100" enable-background="new 0 0 100 100" viewBox="0 0 100 100"><path d="M56.226 74.02c.225 0 .452-.05.665-.156.174-.086.343-.165.512-.243l.098-.045c1.044-.482 2.123-.981 3.682-2.542 1.562-1.56 2.062-2.639 2.545-3.684.456-.989.851-1.843 2.192-3.185 1.34-1.34 2.193-1.735 3.19-2.197l.261-.12c.469-.218.791-.662.854-1.175.063-.513-.141-1.022-.542-1.348-1.302-1.059-2.958-1.618-4.789-1.618-2.753 0-5.592 1.26-7.787 3.455-3.601 3.6-4.505 8.856-2.104 12.229C55.292 73.797 55.753 74.02 56.226 74.02zM59.228 63.283c1.613-1.613 3.731-2.577 5.666-2.577.137 0 .271.005.403.014-.459.349-.954.778-1.499 1.323-1.72 1.72-2.291 2.957-2.795 4.048-.423.915-.757 1.638-1.942 2.821-.892.893-1.521 1.302-2.173 1.631C56.164 68.372 57.048 65.462 59.228 63.283zM64.332 68.808c-.459.988-.854 1.842-2.193 3.181-1.338 1.338-2.191 1.734-3.182 2.193l-.283.131c-.466.213-.791.65-.861 1.158-.069.508.124 1.016.515 1.348 1.319 1.122 3.016 1.715 4.906 1.716 2.754 0 5.593-1.26 7.789-3.456 3.661-3.662 4.529-8.967 2.019-12.342-.432-.581-1.217-.771-1.869-.449-.196.097-.388.186-.615.291-1.043.483-2.122.982-3.682 2.542C65.312 66.684 64.792 67.811 64.332 68.808zM68.996 67.241c.899-.9 1.533-1.309 2.203-1.646.767 2.174-.111 5.175-2.298 7.362-1.614 1.614-3.732 2.577-5.668 2.577-.194 0-.384-.01-.569-.029.485-.361 1.013-.812 1.596-1.396 1.716-1.716 2.288-2.951 2.798-4.049C67.479 69.147 67.812 68.426 68.996 67.241zM36.5 63.5c-.828 0-1.5.671-1.5 1.5v7c0 .829.672 1.5 1.5 1.5S38 72.829 38 72v-7C38 64.171 37.328 63.5 36.5 63.5z"/><path d="M78.27,53H49.73C48.225,53,47,54.225,47,55.73V80.27c0,1.505,1.225,2.73,2.73,2.73H78.27c1.506,0,2.73-1.225,2.73-2.73
	V55.73C81,54.225,79.775,53,78.27,53z M78,80H50V56h28V80z"/><path d="M96.222,39.104l-14.883-28.03c-0.261-0.49-0.771-0.796-1.325-0.796h-9.103h-9.088H38.178H29.09h-9.104
	c-0.555,0-1.064,0.307-1.325,0.796L3.675,39.299c-0.008,0.015-0.011,0.032-0.018,0.048c-0.042,0.084-0.074,0.173-0.1,0.266
	c-0.006,0.022-0.016,0.043-0.021,0.065C3.515,39.782,3.5,39.891,3.5,40.002v8.221v0.021c0,0.829,0.672,1.5,1.5,1.5h8V87H7
	c-0.828,0-1.5,0.671-1.5,1.5S6.172,90,7,90h7.5h71H94c0.828,0,1.5-0.671,1.5-1.5S94.828,87,94,87h-7V49.745h8
	c0.828,0,1.5-0.671,1.5-1.5v-8.049c0.009-0.064,0.02-0.127,0.02-0.194C96.52,39.666,96.409,39.354,96.222,39.104z M92.505,38.502
	H81.094L72.97,13.278h6.142L92.505,38.502z M48.5,13.278v25.225H36.678l2.84-25.225H48.5z M60.483,13.278l2.84,25.225H51.5V13.278
	H60.483z M51.5,41.502h12.001v5.221H51.5V41.502z M48.5,46.724h-12v-5.221h12V46.724z M66.501,41.502h12v5.221h-12V41.502z
	 M33.5,46.724h-12v-5.221h12V46.724z M18.5,46.724h-12v-5.221h12V46.724z M69.818,13.278l8.124,25.225H66.342l-2.84-25.225H69.818z
	 M36.499,13.278l-2.84,25.225H22.059l8.124-25.225H36.499z M20.889,13.278h6.143l-8.124,25.225H7.495L20.889,13.278z M16,50h25v37
	H16V50z M44,87V50h40v37H44z M93.5,46.745H81.501v-5.243H93.5V46.745z"/></svg>